<svg width="480" height="86" viewBox="0 0 480 86" fill="none" xmlns="http://www.w3.org/2000/svg">
<path d="M60.0275 64.3591L59.4 65.9761C59.3349 66.1405 59.2698 66.3187 59.1943 66.4694C59.1551 66.5543 59.1068 66.6347 59.0503 66.7092C58.9854 66.828 58.8829 66.9221 58.7589 66.9766C58.6348 67.0311 58.4962 67.0431 58.3646 67.0107C58.2693 66.9504 58.1904 66.8676 58.1348 66.7696C58.0792 66.6716 58.0486 66.5615 58.0458 66.4488C58.0771 65.9751 58.1657 65.507 58.3098 65.0546C58.4844 64.5209 58.6987 64.001 58.9509 63.4993C59.0959 63.2147 59.1786 62.9026 59.1933 62.5836C59.2081 62.2646 59.1547 61.9461 59.0366 61.6494C58.4583 60.0507 57.8869 58.4441 57.3223 56.8294C57.1509 56.3429 56.9795 55.8531 56.8492 55.3598C56.6145 54.5338 56.1552 53.7891 55.5223 53.2084C54.6652 52.4205 53.808 51.6497 52.9509 50.8515C52.2823 50.2212 51.4766 50.0841 50.6092 50.1047C49.4298 50.1321 48.2469 50.1835 47.0675 50.1664C44.9692 50.1355 42.8675 50.067 40.7692 50.0088C40.6008 49.9941 40.4313 50.0211 40.2758 50.0874C40.1203 50.1537 39.9836 50.2573 39.8778 50.389C39.0652 51.4168 38.2423 52.465 37.4469 53.5201C36.4595 54.8288 35.4995 56.158 34.5155 57.4734C34.3016 57.7806 34.0531 58.0623 33.7749 58.3127C33.5529 58.4807 33.2965 58.5977 33.024 58.6553C32.7086 58.7341 32.5646 58.5868 32.5715 58.2579C32.5923 57.8224 32.7561 57.4058 33.0377 57.0726C34.5897 55.0743 36.1429 53.0771 37.6972 51.081C37.9577 50.7385 38.2389 50.4336 38.4858 50.091C38.7909 49.6696 38.7703 49.4059 38.3486 49.1112C37.7315 48.6693 37.0835 48.2754 36.4492 47.8574C36.0515 47.5971 35.6435 47.3436 35.2526 47.0695C35.11 46.969 34.9918 46.8376 34.9069 46.6852C34.8221 46.5328 34.7726 46.3632 34.7623 46.1891C34.7383 45.9356 34.8515 45.7917 35.1052 45.8191C35.3753 45.8326 35.64 45.9002 35.8835 46.0178C36.6686 46.4734 37.4298 46.9702 38.1978 47.4532C38.3315 47.5388 38.4583 47.6382 38.5852 47.7307C39.144 48.1281 39.2915 48.0972 39.4458 47.4155C39.72 46.2096 39.9703 44.9969 40.176 43.7774C40.4538 42.1228 40.68 40.4579 40.9372 38.7998C40.9646 38.6251 40.9372 38.4983 40.7623 38.4572C39.7852 38.238 38.8115 37.9948 37.8275 37.8132C37.3612 37.7276 37.104 37.9365 36.8915 38.3647C36.7877 38.5837 36.6601 38.7905 36.5109 38.9814C36.4184 39.1013 36.2864 39.1847 36.1383 39.2167C35.9902 39.2487 35.8355 39.2272 35.7017 39.1561C35.5666 39.0682 35.4667 38.9356 35.4196 38.7815C35.3726 38.6274 35.3814 38.4616 35.4446 38.3133C35.4995 38.1729 35.5783 38.0461 35.6435 37.9125C35.8972 37.4124 35.8389 37.2274 35.3486 36.967C35.1086 36.8403 34.8652 36.7204 34.6286 36.5834C34.4991 36.5079 34.3783 36.4183 34.2686 36.3162C34.1443 36.2214 34.0586 36.0849 34.0271 35.932C33.9956 35.779 34.0205 35.6198 34.0972 35.4837C34.1986 35.3562 34.3404 35.267 34.4994 35.2308C34.6583 35.1947 34.8248 35.2138 34.9715 35.285C35.328 35.4834 35.6716 35.7042 36 35.9462C36.0733 36.0192 36.1726 36.0602 36.276 36.0602C36.3795 36.0602 36.4788 36.0192 36.552 35.9462C36.7224 35.7889 36.8691 35.6077 36.9875 35.4083C37.2103 35.0178 37.392 34.6067 37.608 34.2128C37.6982 34.0104 37.8377 33.8338 38.0138 33.6991C38.1899 33.5645 38.3969 33.4761 38.616 33.442C38.671 33.4403 38.7255 33.4519 38.7751 33.4758C38.8246 33.4996 38.8676 33.535 38.9006 33.579C39.0273 33.7676 39.0911 33.9913 39.0831 34.2183C39.0751 34.4452 38.9957 34.6639 38.856 34.8431C38.6606 35.1171 38.4412 35.3741 38.2389 35.6447C37.752 36.3025 37.8549 36.6142 38.6469 36.7546C39.3326 36.8745 40.0012 36.9362 40.6766 37.0184C40.7824 37.0195 40.888 37.0104 40.992 36.991C41.0092 36.4635 41.0606 35.9427 41.04 35.422C41.0092 34.5622 40.9269 33.7092 40.8823 32.8459C40.8823 32.5821 40.7418 32.5204 40.5086 32.541C39.1646 32.6541 37.8206 32.7911 36.4732 32.863C34.9721 32.941 33.5138 33.3894 32.2286 34.1682C31.1589 34.8054 30.0549 35.3878 28.968 36.001C28.841 36.0823 28.6965 36.1325 28.5463 36.1474C28.3962 36.1623 28.2446 36.1415 28.104 36.0866C28.0448 36.07 27.9896 36.0414 27.9419 36.0025C27.8942 35.9637 27.8549 35.9155 27.8266 35.8609C27.7983 35.8063 27.7816 35.7464 27.7774 35.6851C27.7732 35.6237 27.7817 35.5622 27.8023 35.5043C27.8547 35.3088 27.9507 35.1277 28.0831 34.9747C28.2155 34.8216 28.3809 34.7005 28.5669 34.6204C29.3075 34.2367 30.0549 33.8599 30.792 33.4694C31.0697 33.3221 31.3303 33.1268 31.6115 32.9692C31.3784 32.6818 31.0584 32.4775 30.6995 32.3868L28.9852 31.7873C28.6319 31.6773 28.3294 31.4454 28.1315 31.133C27.9395 30.8247 28.0012 30.6363 28.3406 30.4958C28.5213 30.4273 28.7139 30.3956 28.9071 30.4027C29.1002 30.4097 29.29 30.4554 29.4652 30.537C30.3395 30.8795 31.2035 31.2427 32.0846 31.5647C32.4544 31.6642 32.8316 31.7341 33.2126 31.7736C33.1475 31.4071 33.1132 31.0885 33.0412 30.8076C32.8423 29.958 32.6263 29.1153 32.4206 28.2691C32.3502 28.0429 32.3266 27.8048 32.3514 27.5692C32.3762 27.3336 32.4487 27.1055 32.5646 26.8988C32.7532 26.5802 32.8663 26.5563 33.1577 26.7824C33.4858 27.0559 33.6997 27.4419 33.7577 27.8649C33.9223 28.7008 34.0697 29.5401 34.2343 30.3759C34.2931 30.6887 34.371 30.9976 34.4675 31.3009C34.4798 31.3779 34.5076 31.4517 34.549 31.5178C34.5904 31.5839 34.6448 31.641 34.7087 31.6857C34.7727 31.7305 34.845 31.7619 34.9213 31.7782C34.9977 31.7945 35.0765 31.7952 35.1532 31.7805C36.5246 31.6366 37.896 31.4687 39.288 31.3043C39.3903 31.2803 39.4901 31.247 39.5863 31.205C39.2172 30.8888 38.7847 30.6552 38.3178 30.5198C37.632 30.2697 36.9463 30.0471 36.2983 29.7456C36.0043 29.5707 35.7394 29.3511 35.5132 29.0947C35.3897 28.9782 35.4377 28.8446 35.5543 28.7282C35.6612 28.6067 35.8008 28.5186 35.9564 28.4743C36.112 28.4299 36.2771 28.4312 36.432 28.4781C37.1349 28.7008 37.8309 28.9543 38.5235 29.2181C39.1543 29.4579 39.768 29.7353 40.3989 29.9854C40.9098 30.1875 41.1155 30.0848 41.1875 29.5366C41.3075 28.6357 41.3795 27.7279 41.4652 26.8235C41.4926 26.5357 41.4892 26.2445 41.5029 25.9533C41.5188 25.7888 41.4763 25.6239 41.383 25.4874C41.2896 25.3509 41.1512 25.2515 40.992 25.2065C40.0046 24.7954 39.0172 24.3912 38.0469 23.939C37.7185 23.7605 37.422 23.529 37.1692 23.2539C36.9669 23.0552 37.032 22.8633 37.2892 22.7434C37.488 22.6443 37.7061 22.5899 37.9282 22.584C38.1503 22.578 38.3711 22.6208 38.5749 22.7092C39.2366 22.9969 39.8846 23.3155 40.5429 23.6136C40.6938 23.6821 40.8583 23.7232 41.0229 23.778C41.0803 23.6682 41.1125 23.5469 41.1173 23.4231C41.122 23.2993 41.0992 23.1759 41.0503 23.062C40.8275 22.2604 40.5943 21.4588 40.3852 20.664C40.2926 20.3009 40.4709 20.0474 40.8618 19.9001C41.1223 19.8007 41.3486 19.8829 41.5029 20.2426C41.7239 20.7682 41.9151 21.3057 42.0755 21.8527C42.1955 22.2467 42.2332 22.6612 42.3566 23.0552C42.5349 23.6307 42.8058 23.6855 43.2206 23.2436C43.5326 22.901 43.8172 22.5584 44.1155 22.1987C44.3754 21.8674 44.7517 21.647 45.168 21.5821C45.5109 21.5341 45.6583 21.6575 45.6618 22.0103C45.6672 22.1843 45.6364 22.3575 45.5715 22.5191C45.5066 22.6806 45.4089 22.827 45.2846 22.949C44.9692 23.2641 44.6675 23.5964 44.3623 23.9185L44.3966 23.9938C44.6631 24.0075 44.9303 23.9995 45.1955 23.9698C45.8126 23.8499 46.4195 23.6924 47.0332 23.5553C47.5361 23.4279 48.0629 23.4279 48.5658 23.5553C48.7372 23.6033 48.9086 23.6307 48.9635 23.8534C48.9955 23.9629 48.9911 24.0799 48.9509 24.1868C48.9107 24.2937 48.8369 24.3846 48.7406 24.446C48.5068 24.581 48.2535 24.6792 47.9898 24.7372C46.584 25.0181 45.1715 25.2716 43.7658 25.5525C43.0183 25.6998 42.816 25.9773 42.7578 26.7447C42.672 27.8752 42.5623 29.0057 42.4629 30.1327C42.4629 30.1875 42.4629 30.2423 42.4629 30.3451C42.6103 30.2903 42.7406 30.2492 42.8606 30.191C44.6068 29.3444 46.2231 28.2531 47.6606 26.9502C47.9589 26.6899 48.24 26.4158 48.528 26.1486C48.7859 25.8966 49.1197 25.7365 49.4778 25.693C49.5873 25.6631 49.7032 25.6659 49.8111 25.7013C49.9189 25.7366 50.0141 25.8028 50.0846 25.8917C50.1473 25.9931 50.1752 26.1122 50.1641 26.2309C50.1529 26.3496 50.1034 26.4614 50.0229 26.5494C49.7898 26.8543 49.5223 27.1284 49.2652 27.4161C49.1932 27.4983 49.1178 27.5771 49.0423 27.6559L49.0663 27.7313L50.2355 27.7039C50.4865 27.6837 50.7387 27.6837 50.9898 27.7039C51.1735 27.7377 51.3464 27.8152 51.4938 27.93C51.5482 27.9607 51.5943 28.0043 51.6279 28.0571C51.6615 28.1098 51.6815 28.17 51.6863 28.2323C51.691 28.2947 51.6803 28.3572 51.6551 28.4144C51.6299 28.4716 51.591 28.5217 51.5418 28.5603C51.3384 28.7487 51.0888 28.8798 50.8183 28.9406C50.3418 29.0125 49.848 28.9851 49.3612 29.0091C49.0183 29.0091 48.696 29.0605 48.3635 29.0879L48.3189 29.1804C48.4393 29.3372 48.5699 29.486 48.7098 29.6257C48.9463 29.8381 49.2103 30.0197 49.4538 30.2252C49.5856 30.3247 49.6915 30.4545 49.7626 30.6036C49.8336 30.7527 49.8676 30.9166 49.8618 31.0816C49.8539 31.1407 49.8329 31.1972 49.8002 31.247C49.7676 31.2968 49.7242 31.3386 49.6732 31.3694C49.4901 31.4578 49.2849 31.49 49.0836 31.462C48.8822 31.4339 48.6936 31.3469 48.5418 31.2118C48.1818 30.9138 47.856 30.5883 47.5132 30.256C46.8583 29.5949 46.368 29.5229 45.6103 30.0711C45.1989 30.3691 44.8389 30.7562 44.4549 31.0988L44.4892 31.181L45.7235 31.3283L46.5909 31.4276C46.6649 31.4377 46.7382 31.4526 46.8103 31.4722C47.2012 31.5749 47.4515 31.8148 47.4378 32.0957C47.4151 32.2746 47.3275 32.4389 47.1917 32.5576C47.0558 32.6763 46.8811 32.7411 46.7006 32.7397C46.4711 32.7475 46.2414 32.7326 46.0149 32.6952C45.1783 32.5787 44.3452 32.4382 43.5052 32.3526C43.1283 32.3317 42.7506 32.3317 42.3738 32.3526C42.4149 33.9901 42.1783 35.5865 42.6549 37.1486C43.56 37.0835 44.4515 37.0493 45.3326 36.9533C46.5052 36.8266 47.6743 36.6553 48.8469 36.5046C49.0451 36.4824 49.2336 36.407 49.3924 36.2864C49.5512 36.1657 49.6743 36.0044 49.7486 35.8194C49.9989 35.3158 50.2732 34.826 50.544 34.3327C50.7614 33.9092 51.1277 33.581 51.5726 33.4111C51.634 33.3817 51.7046 33.3778 51.7689 33.4003C51.8331 33.4227 51.8859 33.4698 51.9155 33.531C52.0239 33.6977 52.0817 33.8923 52.0817 34.0911C52.0817 34.29 52.0239 34.4845 51.9155 34.6513C51.6618 35.1103 51.3703 35.5488 51.0755 35.9804C50.5029 36.8197 50.5543 37.063 51.4183 37.6111C52.0663 38.0222 52.7109 38.4435 53.3418 38.8786C53.5749 39.0091 53.7694 39.1989 53.9055 39.4287C54.0416 39.6585 54.1144 39.9202 54.1166 40.1872C53.9016 40.2827 53.6662 40.3233 53.4316 40.3054C53.197 40.2875 52.9706 40.2115 52.7726 40.0845C52.1602 39.7243 51.5858 39.3031 51.0583 38.8272C50.6453 38.4222 50.1413 38.1219 49.5883 37.9515C49.0354 37.781 48.4496 37.7454 47.88 37.8475C46.368 38.0667 44.8526 38.2585 43.3372 38.4607C43.2549 38.4607 43.1692 38.4881 43.0869 38.4949C42.854 38.5 42.6309 38.5893 42.4588 38.7461C42.2868 38.9029 42.1774 39.1167 42.1509 39.3479C42.0343 39.9269 41.8972 40.5024 41.808 41.0848C41.4412 43.3526 41.088 45.6239 40.7246 47.8917C40.5978 48.6796 40.5978 48.6899 41.4103 48.7139L50.7772 48.9811C51.0682 49.0004 51.3596 48.9512 51.6282 48.8376C51.8967 48.724 52.1349 48.549 52.3235 48.3267C52.8858 47.6861 53.4686 47.0627 54.0378 46.4323C54.2537 46.1677 54.5581 45.9901 54.8949 45.9322C55.0043 45.9016 55.1202 45.9035 55.2285 45.9376C55.3369 45.9716 55.433 46.0364 55.5052 46.124C55.5686 46.214 55.5991 46.323 55.5916 46.4328C55.5841 46.5425 55.5391 46.6464 55.464 46.7269C55.1212 47.1757 54.7303 47.5971 54.3635 48.0356C54.192 48.2377 54.0206 48.4501 53.8629 48.6556L53.9075 48.7515C54.1514 48.7728 54.3964 48.7797 54.6412 48.7721C55.464 48.7036 56.2835 48.6111 57.1029 48.5323C57.2819 48.5028 57.465 48.5092 57.6416 48.5509C57.8181 48.5927 57.9847 48.669 58.1315 48.7755C58.4743 49.0393 58.4743 49.4196 58.1315 49.632C57.8631 49.7792 57.566 49.8668 57.2606 49.8889C56.6263 49.9437 55.9852 49.93 55.3509 49.9677C55.008 49.9882 54.6652 50.0567 54.2366 50.1184C54.3014 50.2953 54.3903 50.4624 54.5006 50.6151C55.1109 51.2112 55.7178 51.8141 56.3658 52.3657C56.703 52.6403 57.0962 52.838 57.5178 52.9451C57.9394 53.0522 58.3794 53.0661 58.8069 52.9857C60.3738 52.7631 61.9372 52.4959 63.5006 52.2355C64.3406 52.095 65.1738 51.8929 66.0172 51.7799C66.4605 51.7214 66.91 51.7295 67.3509 51.8039C67.7829 51.8758 67.8652 52.2424 67.5806 52.5918C67.3536 52.833 67.0438 52.9798 66.7132 53.0029C64.9989 53.2906 63.312 53.575 61.6115 53.873C61.1178 53.9586 60.6275 54.0751 60.1372 54.1745L60.1029 54.2909C60.269 54.441 60.4547 54.5677 60.6549 54.6678C61.7148 55.0472 62.7346 55.5303 63.6995 56.11C64.0934 56.308 64.4973 56.4852 64.9098 56.641C65.1166 56.7057 65.3068 56.8151 65.4667 56.9613C65.6267 57.1075 65.7526 57.287 65.8355 57.4871C65.9418 57.8023 65.8766 57.9393 65.5543 58.0284C65.1713 58.1406 64.7596 58.1001 64.4058 57.9154C63.1681 57.2884 61.9406 56.641 60.6926 56.0381C59.9109 55.6578 59.1018 55.3529 58.2275 54.9624C58.3269 55.394 58.3783 55.7537 58.4949 56.0929C59.1018 57.8571 59.7223 59.6145 60.336 61.3753C60.3668 61.5103 60.445 61.6297 60.5563 61.712C60.6676 61.7944 60.8048 61.8341 60.9429 61.8241C61.56 61.7864 62.1738 61.7213 62.7875 61.6631C63.0035 61.6425 63.216 61.598 63.4286 61.5809C63.6398 61.5592 63.8532 61.5832 64.0544 61.6512C64.2555 61.7191 64.4396 61.8295 64.5943 61.9748C65.1223 62.4544 65.6229 62.9477 66.144 63.4445C66.2681 63.5683 66.3584 63.7217 66.4064 63.8902C66.4544 64.0587 66.4585 64.2366 66.4183 64.4071C66.3601 64.7497 66.1921 64.8216 65.8732 64.7223C65.379 64.5609 64.9514 64.242 64.656 63.8145C64.2835 63.3395 63.751 63.0159 63.1576 62.9038C62.5642 62.7916 61.9502 62.8985 61.4298 63.2047C61.3941 63.237 61.3672 63.2778 61.3516 63.3234C61.336 63.3689 61.3322 63.4176 61.3406 63.465C61.4449 63.7157 61.5735 63.9555 61.7246 64.181C61.9944 64.5723 62.1818 65.0142 62.2755 65.48C62.3693 65.9458 62.3673 66.4257 62.2698 66.8908C62.2249 67.1104 62.1438 67.3211 62.0298 67.5142C62.0043 67.5681 61.9665 67.6151 61.9194 67.6515C61.8722 67.6879 61.8171 67.7126 61.7586 67.7236C61.7001 67.7347 61.6398 67.7317 61.5826 67.7149C61.5254 67.6982 61.4731 67.6682 61.4298 67.6273C61.2947 67.5252 61.1844 67.3939 61.1072 67.2432C61.0301 67.0925 60.988 66.9264 60.984 66.7571C60.9498 66.3286 60.8868 65.9029 60.7955 65.4828C60.6912 65.0355 60.4203 64.6447 60.0378 64.39" fill="black"/>
<path d="M355.2 54.8836H345.943L348.922 42.9381H342.857L339.878 54.8836H330.62L336.216 32.5136C336.22 32.2773 336.171 32.0431 336.072 31.8285C336.035 31.7346 335.969 31.6546 335.884 31.5994C335.8 31.5442 335.7 31.5165 335.599 31.5202H321.884C321.74 31.5202 321.665 31.3146 321.665 30.9035C321.667 30.7214 321.679 30.5395 321.703 30.3588C321.726 30.1748 321.762 29.9927 321.812 29.8141C321.934 29.4031 322.048 29.1975 322.155 29.1975H346.286L343.45 40.5641H349.519L352.354 29.1975H361.611L355.2 54.8836Z" fill="black"/>
<path d="M358.117 53.7051L362.646 35.6721H369.692L365.42 52.7562C365.426 52.9428 365.494 53.1222 365.612 53.2667C365.66 53.3418 365.726 53.4041 365.804 53.4483C365.881 53.4924 365.969 53.5171 366.058 53.5202H369.024C369.258 53.4912 369.476 53.3851 369.644 53.2187C369.849 53.0745 370 52.8676 370.076 52.6295L374.317 35.679H381.363L376.834 53.712C376.78 53.9044 376.688 54.0839 376.563 54.2396C376.42 54.4243 376.254 54.5901 376.069 54.7329C375.884 54.8779 375.687 55.0063 375.48 55.1165C375.306 55.2137 375.117 55.2787 374.921 55.3084H359.266C358.95 55.243 358.667 55.0683 358.467 54.8151C358.231 54.5705 358.094 54.247 358.083 53.9073L358.117 53.7051Z" fill="black"/>
<path d="M384.425 35.6721H411.305C411.618 35.7492 411.897 35.9235 412.104 36.1699C412.31 36.4162 412.433 36.7218 412.454 37.0424C412.459 37.118 412.448 37.1937 412.423 37.2651L407.928 55.2981H400.882L405.154 38.2209C405.148 38.0343 405.081 37.8549 404.963 37.7104C404.914 37.6353 404.849 37.573 404.771 37.5288C404.693 37.4847 404.606 37.46 404.517 37.4569H401.712L397.255 55.2981H390.209L394.481 38.2209C394.475 38.0343 394.408 37.8549 394.289 37.7104C394.241 37.6353 394.175 37.573 394.098 37.5288C394.02 37.4847 393.933 37.46 393.844 37.4569H391.039L386.582 55.2981H379.536L384.425 35.6721Z" fill="black"/>
<path d="M415.481 37.2651C415.527 37.0875 415.614 36.9232 415.735 36.7855C415.886 36.5929 416.057 36.4171 416.246 36.2613C416.43 36.1067 416.627 35.968 416.835 35.8468C417.003 35.7406 417.196 35.6803 417.394 35.6721H433.114C433.276 35.681 433.432 35.731 433.569 35.8173C433.706 35.9036 433.819 36.0235 433.896 36.1654C434.102 36.4367 434.222 36.7638 434.239 37.1041L429.71 55.2947H422.664L424.378 48.3816H419.753L418.039 55.2947H410.993L415.481 37.2651ZM426.895 38.3476L426.926 38.2209C426.92 38.0343 426.852 37.8549 426.734 37.7104C426.686 37.6353 426.62 37.573 426.542 37.5288C426.465 37.4847 426.377 37.46 426.288 37.4569H423.322C423.088 37.4862 422.87 37.5922 422.702 37.7584C422.497 37.9024 422.345 38.1093 422.27 38.3476L420.213 46.6002H424.838L426.895 38.3476Z" fill="black"/>
<path d="M454.862 35.6721C455.174 35.7492 455.454 35.9235 455.66 36.1699C455.867 36.4162 455.989 36.7218 456.01 37.0424C456.016 37.118 456.005 37.1938 455.98 37.2651L451.485 55.2981H444.439L448.711 38.2209C448.705 38.0343 448.637 37.8549 448.519 37.7104C448.471 37.6353 448.405 37.573 448.327 37.5288C448.25 37.4847 448.163 37.46 448.073 37.4569H444.274L439.817 55.2981H432.771L437.681 35.6721H454.862Z" fill="black"/>
<path d="M473.829 44.37C474.274 44.3557 474.71 44.5029 475.056 44.7845C475.216 44.9151 475.343 45.0807 475.429 45.2684C475.515 45.4561 475.556 45.6609 475.55 45.8671C475.54 46.0171 475.519 46.166 475.485 46.3124L473.637 53.7051C473.583 53.8976 473.491 54.0771 473.366 54.2327C473.223 54.4175 473.057 54.5833 472.872 54.726C472.687 54.871 472.49 54.9994 472.282 55.1097C472.109 55.2068 471.92 55.2718 471.723 55.3015H456.069C455.752 55.2361 455.47 55.0615 455.27 54.8082C455.033 54.5637 454.897 54.2401 454.886 53.9004L456.034 49.2483H463.08L462.219 52.7836C462.22 52.9551 462.275 53.122 462.377 53.2598C462.424 53.3296 462.485 53.3884 462.557 53.4321C462.628 53.4759 462.709 53.5036 462.792 53.5133H465.819C466.054 53.4843 466.272 53.3783 466.44 53.2118C466.644 53.0677 466.796 52.8608 466.872 52.6226L468.305 46.8229C468.307 46.6553 468.251 46.4923 468.148 46.3604C468.095 46.2928 468.027 46.2389 467.95 46.2031C467.872 46.1673 467.787 46.1508 467.702 46.1548H458.997C458.543 46.1673 458.1 46.0138 457.752 45.7232C457.588 45.5913 457.457 45.4236 457.368 45.2329C457.28 45.0422 457.236 44.8337 457.241 44.6235C457.236 44.5597 457.236 44.4955 457.241 44.4317C457.241 44.3666 457.269 44.2947 457.289 44.209L459.003 37.2651C459.057 37.0738 459.149 36.8954 459.274 36.7409C459.417 36.556 459.583 36.3902 459.768 36.2476C459.957 36.1002 460.161 35.9717 460.375 35.864C460.554 35.7686 460.747 35.7037 460.947 35.6721H476.602C476.915 35.7492 477.194 35.9235 477.401 36.1699C477.607 36.4162 477.73 36.7218 477.751 37.0424C477.756 37.118 477.746 37.1938 477.72 37.2651L476.733 41.28H469.714L470.448 38.3476V38.2517C470.445 38.0727 470.383 37.8996 470.273 37.7584C470.178 37.6163 470.038 37.5101 469.875 37.4569H466.879C466.644 37.4862 466.426 37.5922 466.258 37.7584C466.054 37.9024 465.902 38.1093 465.826 38.3476L464.486 43.6986C464.484 43.8662 464.54 44.0293 464.643 44.1611C464.701 44.2308 464.774 44.2859 464.857 44.3217C464.94 44.3574 465.03 44.3728 465.12 44.3666L473.829 44.37Z" fill="black"/>
<path d="M100.458 45.4011H99.1856L100.022 54.9932H90.7856L89.9491 45.4011H87.0862L84.6862 54.9932H75.4291L81.0245 32.6232C81.0289 32.3869 80.9796 32.1526 80.8805 31.938C80.8431 31.8442 80.7775 31.7642 80.6928 31.709C80.6081 31.6538 80.5084 31.6261 80.4074 31.6297H66.6931C66.5491 31.6297 66.4736 31.4242 66.4736 31.0131C66.477 30.8377 66.4907 30.6627 66.5148 30.489C66.5376 30.3049 66.5742 30.1228 66.6245 29.9443C66.7456 29.5332 66.8599 29.3276 66.9673 29.3276H104.38C104.801 29.3943 105.183 29.6139 105.453 29.9443C105.756 30.2525 105.931 30.6636 105.943 31.0953C105.95 31.1939 105.937 31.2928 105.906 31.3865L102.926 43.2978C102.856 43.5361 102.739 43.7583 102.583 43.9521C102.393 44.2005 102.18 44.4299 101.946 44.6372C101.713 44.8479 101.456 45.0307 101.181 45.1819C100.962 45.3137 100.713 45.389 100.458 45.4011V45.4011ZM94.0256 41.9138L96.2782 32.8356V32.6917C96.2745 32.444 96.1916 32.2039 96.0416 32.0066C95.9842 31.9069 95.9026 31.8233 95.8044 31.7634C95.7061 31.7035 95.5943 31.6693 95.4794 31.664H90.4976L87.6622 43.0305H92.8942C93.1707 42.9521 93.4214 42.802 93.6211 42.5955C93.8184 42.4135 93.9578 42.1776 94.0222 41.9172L94.0256 41.9138Z" fill="#29A9E0"/>
<path d="M121.46 44.37L121.015 46.1549H112.022L110.174 53.5133H114.799L115.851 49.2449H122.897L121.399 55.2981H102.679L107.588 35.6721H126.305L124.903 41.28H117.857L118.814 37.4569H114.188L112.474 44.37H121.46Z" fill="#29A9E0"/>
<path d="M143.747 44.37C144.192 44.3557 144.628 44.5029 144.974 44.7845C145.134 44.9151 145.261 45.0807 145.347 45.2684C145.433 45.4561 145.474 45.6609 145.468 45.8671C145.458 46.0171 145.437 46.166 145.403 46.3124L143.555 53.7051C143.501 53.8976 143.409 54.0771 143.284 54.2327C143.141 54.4176 142.975 54.5835 142.79 54.726C142.605 54.8711 142.408 54.9995 142.2 55.1097C142.027 55.2068 141.838 55.2718 141.641 55.3015H125.987C125.67 55.2361 125.388 55.0615 125.188 54.8082C124.95 54.5648 124.813 54.2406 124.804 53.9004L125.952 49.2483H132.998L132.137 52.7836C132.138 52.9551 132.193 53.122 132.295 53.2598C132.342 53.3296 132.403 53.3884 132.475 53.4321C132.546 53.4759 132.627 53.5036 132.71 53.5133H135.741C135.975 53.4841 136.194 53.3781 136.361 53.2118C136.566 53.0679 136.718 52.8609 136.793 52.6226L138.23 46.8229C138.23 46.6549 138.174 46.4918 138.069 46.3604C138.017 46.2928 137.949 46.2389 137.871 46.2031C137.794 46.1673 137.708 46.1508 137.623 46.1548H128.915C128.461 46.1673 128.018 46.0138 127.67 45.7232C127.506 45.5913 127.375 45.4236 127.286 45.2329C127.198 45.0422 127.154 44.8337 127.159 44.6235C127.154 44.5597 127.154 44.4955 127.159 44.4317C127.159 44.3678 127.175 44.2935 127.207 44.209L128.921 37.2651C128.975 37.0737 129.067 36.8954 129.192 36.7409C129.335 36.556 129.501 36.3902 129.686 36.2476C129.875 36.1002 130.078 35.9717 130.293 35.864C130.472 35.7686 130.665 35.7037 130.865 35.6721H146.52C146.832 35.7492 147.112 35.9235 147.319 36.1699C147.525 36.4162 147.648 36.7218 147.669 37.0424C147.674 37.118 147.663 37.1938 147.638 37.2651L146.651 41.28H139.632L140.366 38.3476V38.2517C140.363 38.0727 140.301 37.8995 140.191 37.7584C140.096 37.6163 139.956 37.5101 139.793 37.4569H136.8C136.566 37.4862 136.348 37.5922 136.18 37.7584C135.975 37.9022 135.823 38.1092 135.748 38.3476L134.4 43.702C134.399 43.8696 134.454 44.0328 134.558 44.1645C134.616 44.2348 134.689 44.2901 134.773 44.3259C134.856 44.3617 134.947 44.3768 135.038 44.37H143.747Z" fill="#29A9E0"/>
<path d="M150.984 36.7889C151.135 36.5963 151.306 36.4206 151.495 36.2648C151.68 36.1101 151.877 35.9714 152.085 35.8502C152.253 35.744 152.445 35.6838 152.644 35.6755H168.364C168.525 35.6844 168.682 35.7344 168.819 35.8207C168.956 35.9071 169.068 36.0269 169.145 36.1688C169.352 36.4401 169.471 36.7673 169.488 37.1075L165.343 53.7051C165.29 53.8976 165.198 54.0771 165.072 54.2327C164.93 54.4177 164.764 54.5835 164.579 54.726C164.394 54.8711 164.196 54.9995 163.989 55.1097C163.816 55.2068 163.626 55.2718 163.43 55.3015H147.772C147.456 55.2362 147.173 55.0615 146.973 54.8082C146.735 54.5648 146.598 54.2406 146.589 53.9004L150.734 37.2685C150.779 37.0913 150.864 36.927 150.984 36.7889ZM162.172 38.2209C162.166 38.0343 162.098 37.8549 161.98 37.7104C161.932 37.6353 161.866 37.573 161.788 37.5288C161.71 37.4847 161.623 37.46 161.534 37.4569H158.568C158.334 37.4862 158.116 37.5922 157.948 37.7584C157.743 37.9022 157.591 38.1092 157.516 38.3476L153.912 52.7357C153.918 52.9223 153.986 53.1018 154.104 53.2461C154.153 53.3212 154.218 53.3836 154.296 53.4277C154.374 53.4719 154.461 53.4965 154.55 53.4996H157.516C157.75 53.4704 157.968 53.3644 158.136 53.1981C158.341 53.0542 158.493 52.8472 158.568 52.6089L162.141 38.3373L162.172 38.2209Z" fill="#29A9E0"/>
<path d="M168.395 53.7051L172.924 35.6721H179.969L175.697 52.7562C175.703 52.9429 175.771 53.1223 175.889 53.2667C175.938 53.3418 176.003 53.4041 176.081 53.4483C176.159 53.4924 176.246 53.5171 176.335 53.5202H179.315C179.549 53.4909 179.767 53.3849 179.935 53.2187C180.14 53.0747 180.291 52.8678 180.367 52.6295L184.608 35.679H191.654L187.125 53.712C187.072 53.9044 186.979 54.084 186.854 54.2396C186.711 54.4245 186.545 54.5903 186.36 54.7329C186.176 54.878 185.978 55.0064 185.771 55.1165C185.597 55.2137 185.408 55.2787 185.212 55.3084H169.543C169.227 55.243 168.944 55.0683 168.744 54.8151C168.506 54.5717 168.369 54.2474 168.36 53.9073L168.395 53.7051Z" fill="#29A9E0"/>
<path d="M208.698 48.385H208.012L208.492 55.2981H201.491L200.949 48.385H198.549L196.835 55.2981H189.789L194.699 35.6721H211.921C212.082 35.681 212.239 35.731 212.376 35.8173C212.512 35.9036 212.625 36.0235 212.702 36.1654C212.908 36.4367 213.028 36.7638 213.045 37.1041L210.645 46.7886C210.589 46.9824 210.491 47.1613 210.357 47.3127C210.206 47.4956 210.034 47.6611 209.846 47.8061C209.661 47.9512 209.464 48.0795 209.257 48.1897C209.084 48.2879 208.894 48.3541 208.698 48.385V48.385ZM205.715 38.3476L205.746 38.2209C205.74 38.0343 205.672 37.8549 205.554 37.7104C205.505 37.6353 205.44 37.573 205.362 37.5288C205.284 37.4847 205.197 37.46 205.108 37.4569H201.302L199.005 46.5899H202.831C203.079 46.584 203.314 46.4806 203.486 46.3022C203.663 46.152 203.79 45.9529 203.853 45.7301L205.715 38.3476Z" fill="#29A9E0"/>
<path d="M211.951 53.7052L216.066 37.2617C216.119 37.0703 216.211 36.892 216.336 36.7375C216.479 36.5525 216.645 36.3867 216.83 36.2442C217.019 36.0968 217.223 35.9683 217.437 35.8605C217.616 35.7651 217.809 35.7003 218.01 35.6687H233.664C233.977 35.7458 234.256 35.9201 234.463 36.1664C234.669 36.4128 234.792 36.7184 234.813 37.039C234.818 37.1145 234.808 37.1904 234.782 37.2617L233.795 41.2766H226.746L227.479 38.3442V38.2483C227.476 38.0693 227.414 37.8962 227.304 37.755C227.209 37.6128 227.069 37.5067 226.907 37.4535H223.91C223.676 37.4827 223.457 37.5887 223.29 37.755C223.085 37.8989 222.933 38.1059 222.858 38.3442L219.254 52.7322C219.26 52.9188 219.328 53.0982 219.446 53.2427C219.494 53.3178 219.56 53.3801 219.638 53.4243C219.715 53.4684 219.803 53.4931 219.892 53.4962H222.919C223.142 53.4479 223.347 53.3375 223.509 53.1776C223.699 53.0343 223.839 52.8338 223.907 52.6055L224.736 49.2277H231.772L230.658 53.6812C230.604 53.8736 230.512 54.0531 230.387 54.2087C230.244 54.3935 230.078 54.5593 229.893 54.702C229.708 54.847 229.511 54.9754 229.303 55.0857C229.13 55.1828 228.941 55.2478 228.744 55.2776H213.1C212.784 55.2122 212.501 55.0375 212.301 54.7843C212.063 54.5408 211.926 54.2166 211.917 53.8764L211.951 53.7052Z" fill="#29A9E0"/>
<path d="M252.127 44.37L251.682 46.1549H242.689L240.841 53.5133H245.462L246.515 49.2449H253.561L252.062 55.2981H233.346L238.255 35.6721H256.972L255.57 41.28H248.524L249.481 37.4569H244.855L243.141 44.37H252.127Z" fill="#29A9E0"/>
<path d="M273.329 46.5694L272.883 48.3542H263.89L262.176 55.2981H255.123L260.033 35.6721H278.743L276.799 43.4794H269.76L271.258 37.4569H266.633L264.336 46.5694H273.329Z" fill="#29A9E0"/>
<path d="M277.282 53.7051L281.829 35.6721H288.857L284.571 52.7562C284.578 52.9428 284.645 53.1222 284.763 53.2666C284.812 53.3418 284.877 53.4041 284.955 53.4483C285.033 53.4924 285.12 53.5171 285.209 53.5201H288.175C288.41 53.4912 288.628 53.3851 288.796 53.2187C289 53.0745 289.152 52.8676 289.228 52.6295L293.486 35.6721H300.532L296.002 53.7051C295.949 53.8976 295.857 54.0771 295.732 54.2327C295.589 54.4175 295.423 54.5833 295.238 54.726C295.053 54.871 294.856 54.9994 294.648 55.1097C294.475 55.2068 294.286 55.2718 294.089 55.3015H278.431C278.115 55.2361 277.832 55.0615 277.632 54.8082C277.396 54.5637 277.259 54.2401 277.248 53.9004L277.282 53.7051Z" fill="#29A9E0"/>
<path d="M310.628 35.6721L306.171 53.5133H310.793L311.845 49.2449H318.891L317.393 55.2981H298.68L303.589 35.6721H310.628Z" fill="#29A9E0"/>
<path d="M73.7587 60.5908C69.8698 67.5639 63.7848 73.0585 56.4491 76.221C49.1135 79.3834 40.9379 80.0366 33.1925 78.0792C25.4471 76.1217 18.5655 71.6631 13.6169 65.3962C8.66829 59.1292 5.92967 51.4046 5.82652 43.4226C5.72337 35.4406 8.26147 27.6479 13.0465 21.2554C17.8315 14.8628 24.5956 10.2282 32.2878 8.07159C39.9801 5.91497 48.1698 6.35707 55.5847 9.32922C62.9996 12.3014 69.2246 17.6371 73.2925 24.5076H77.2216C73.0764 16.6269 66.3975 10.3692 58.2603 6.74208C50.1231 3.11498 41.001 2.3295 32.3626 4.51212C23.7243 6.69473 16.0724 11.7184 10.6389 18.7744C5.20545 25.8304 2.30652 34.508 2.40887 43.4103C2.51122 52.3126 5.6089 60.9214 11.2032 67.8508C16.7975 74.7802 24.5628 79.6269 33.2491 81.6107C41.9353 83.5944 51.0369 82.5998 59.0886 78.7869C67.1403 74.9739 73.6735 68.5646 77.6364 60.5908H73.7587Z" fill="#29A9E0"/>
</svg>
